<svg width="179" height="179" viewBox="0 0 179 179" fill="none" xmlns="http://www.w3.org/2000/svg">
<path fill-rule="evenodd" clip-rule="evenodd" d="M89.608 32C58.3442 32 33 57.3443 33 88.608C33 119.872 58.3442 145.216 89.608 145.216C120.872 145.216 146.216 119.872 146.216 88.608C146.216 57.3443 120.872 32 89.608 32ZM89.608 58.3804C72.9138 58.3804 59.3804 71.9138 59.3804 88.608C59.3804 105.302 72.9138 118.836 89.608 118.836C106.302 118.836 119.836 105.302 119.836 88.608C119.836 71.9138 106.302 58.3804 89.608 58.3804Z" fill="#1400FF"/>
<path d="M81.5 2.74833e-05L178.5 2.67839e-05L152.602 26.5424L56 26.5424L81.5 2.74833e-05Z" fill="#1400FF"/>
<path d="M25.5 152L122.5 152L96.6017 178.542L-2.32041e-06 178.542L25.5 152Z" fill="#1400FF"/>
</svg>
